<svg xmlns="http://www.w3.org/2000/svg" width="61" height="61" viewBox="0 0 61 61" fill="none">
  <path d="M30.5 0C13.6707 0 0 13.646 0 30.5C0 47.3293 13.646 61 30.5 61C47.354 61 61 47.354 61 30.5C61 13.6707 47.354 0 30.5 0ZM30.5 56.8791V55.6205C44.3681 55.6205 55.5959 44.3928 55.5959 30.5247H56.8544C56.879 45.0344 45.0591 56.8791 30.5 56.8791Z" fill="#D2E6FF"/>
  <path d="M26.5714 43C25.4792 43 24.5433 42.6239 23.764 41.8717C22.9846 41.1194 22.5715 40.2 22.5246 39.1133C21.3068 38.8998 20.2951 38.3199 19.4895 37.3737C18.6839 36.4276 18.2811 35.3241 18.2811 34.0632C18.2811 33.6157 18.3387 33.1735 18.4539 32.7366C18.5691 32.2997 18.7419 31.8895 18.9724 31.5058C18.6483 31.0862 18.4052 30.6207 18.2431 30.1094C18.081 29.5981 18 29.0612 18 28.4988C18 27.1807 18.4356 26.0409 19.3068 25.0794C20.178 24.1178 21.2572 23.5677 22.5443 23.429C22.5255 23.3541 22.5162 23.2792 22.5162 23.2042V22.9513C22.533 21.8403 22.934 20.904 23.719 20.1424C24.504 19.3808 25.4548 19 26.5714 19C27.2796 19 27.8843 19.1405 28.3855 19.4215C28.8867 19.7026 29.378 20.1157 29.8595 20.6609C30.3541 20.1157 30.844 19.7026 31.3293 19.4215C31.8145 19.1405 32.4206 19 33.1475 19C34.2376 19 35.1757 19.3841 35.9618 20.1522C36.7479 20.9204 37.1494 21.8506 37.1663 22.9429V23.1958C37.1663 23.2707 37.1569 23.3457 37.1382 23.4206C38.4253 23.5592 39.5105 24.1063 40.3939 25.0618C41.2773 26.0173 41.719 27.163 41.719 28.4988C41.719 29.0612 41.6333 29.5981 41.4618 30.1094C41.2904 30.6207 41.0426 31.0862 40.7185 31.5058C40.949 31.888 41.1265 32.2978 41.2511 32.7352C41.3756 33.1725 41.4379 33.6152 41.4379 34.0632C41.4379 35.3485 41.0337 36.4627 40.2253 37.4061C39.4169 38.3494 38.3944 38.9185 37.1578 39.1133C37.111 40.2 36.704 41.1194 35.9368 41.8717C35.1695 42.6239 34.2398 43 33.1475 43C32.4075 43 31.7981 42.8609 31.3195 42.5826C30.8408 42.3044 30.3541 41.8834 29.8595 41.3194C29.3593 41.8834 28.8665 42.3044 28.3813 42.5826C27.896 42.8609 27.2927 43 26.5714 43ZM30.5902 23.0187V38.9812C30.5902 39.6973 30.8386 40.3025 31.3353 40.797C31.8321 41.2914 32.4401 41.5386 33.1596 41.5386C33.8448 41.5386 34.4295 41.2969 34.9138 40.8136C35.3981 40.3302 35.6618 39.7513 35.7049 39.0768C34.9873 39.0131 34.3218 38.8075 33.7082 38.4599C33.0946 38.1124 32.5799 37.6417 32.1639 37.0478C32.0328 36.8754 31.9829 36.6943 32.0142 36.5044C32.0455 36.3146 32.1488 36.1603 32.3241 36.0417C32.4965 35.9105 32.6812 35.8606 32.8782 35.8919C33.0751 35.9232 33.2352 36.0265 33.3583 36.2018C33.6949 36.6915 34.1234 37.0663 34.6436 37.3264C35.1638 37.5866 35.7237 37.7166 36.3232 37.7166C37.3518 37.7166 38.2178 37.3649 38.9213 36.6613C39.6248 35.9578 39.9766 35.0918 39.9766 34.0632C39.9766 33.8165 39.9471 33.5699 39.888 33.3232C39.829 33.0765 39.7471 32.836 39.6421 32.6019C39.2281 32.9204 38.7592 33.1686 38.2356 33.3466C37.7119 33.5246 37.1681 33.6136 36.6042 33.6136C36.3972 33.6136 36.2236 33.5434 36.0836 33.4032C35.9435 33.263 35.8735 33.0892 35.8735 32.8819C35.8735 32.6746 35.9435 32.5012 36.0836 32.3616C36.2236 32.222 36.3972 32.1522 36.6042 32.1522C37.6328 32.1522 38.4988 31.8004 39.2023 31.0969C39.9058 30.3934 40.2576 29.5274 40.2576 28.4988C40.2576 27.4994 39.9152 26.6514 39.2304 25.9549C38.5457 25.2584 37.7077 24.8885 36.7166 24.8454C36.4862 25.3026 36.1766 25.7002 35.7878 26.0384C35.3991 26.3766 34.9583 26.6431 34.4656 26.8379C34.282 26.9091 34.0998 26.9032 33.9192 26.8202C33.7385 26.7371 33.6181 26.6006 33.5579 26.4108C33.4923 26.2272 33.4965 26.0417 33.5705 25.8543C33.6445 25.667 33.7827 25.5405 33.985 25.4749C34.5002 25.2969 34.9157 24.9841 35.2314 24.5363C35.5471 24.0885 35.7049 23.578 35.7049 23.0047C35.7049 22.2965 35.4575 21.6956 34.9628 21.2019C34.4681 20.7082 33.8625 20.4614 33.146 20.4614C32.4295 20.4614 31.8244 20.7086 31.3307 21.203C30.837 21.6974 30.5902 22.3027 30.5902 23.0187ZM29.1288 38.9812V23.0187C29.1288 22.3027 28.8814 21.6974 28.3867 21.203C27.892 20.7086 27.2864 20.4614 26.5699 20.4614C25.8534 20.4614 25.2483 20.7086 24.7546 21.203C24.2609 21.6974 24.0141 22.3027 24.0141 23.0187C24.0141 23.577 24.1705 24.0815 24.4834 24.5321C24.7963 24.9827 25.2103 25.2969 25.7255 25.4749C25.9092 25.5405 26.0487 25.6623 26.1443 25.8403C26.2398 26.0183 26.2564 26.2011 26.194 26.3888C26.1192 26.5765 25.9882 26.7113 25.8011 26.7935C25.614 26.8756 25.4192 26.881 25.2169 26.8099C24.7241 26.615 24.2834 26.3532 23.8946 26.0244C23.5059 25.6956 23.1963 25.3026 22.9658 24.8454C21.9991 24.8885 21.1733 25.2618 20.4885 25.9653C19.8038 26.6689 19.4614 27.5164 19.4614 28.5079C19.4614 29.5304 19.8131 30.3934 20.5166 31.0969C21.2202 31.8004 22.0862 32.1522 23.1148 32.1522C23.3218 32.1522 23.4953 32.2223 23.6354 32.3626C23.7754 32.5028 23.8455 32.6766 23.8455 32.8839C23.8455 33.0912 23.7754 33.2646 23.6354 33.4042C23.4953 33.5438 23.3218 33.6136 23.1148 33.6136C22.5508 33.6136 22.0071 33.5246 21.4834 33.3466C20.9597 33.1686 20.4909 32.9204 20.0768 32.6019C19.9719 32.836 19.8899 33.0765 19.8309 33.3232C19.7719 33.5699 19.7424 33.8165 19.7424 34.0632C19.7424 35.0918 20.0942 35.9578 20.7977 36.6613C21.5012 37.3649 22.3672 37.7166 23.3958 37.7166C24.0009 37.7166 24.5606 37.585 25.0749 37.3218C25.5892 37.0585 26.0178 36.6852 26.3607 36.2018C26.4838 36.0265 26.6438 35.9232 26.8408 35.8919C27.0378 35.8606 27.2225 35.9058 27.3948 36.0276C27.5672 36.1494 27.6698 36.3068 27.7026 36.4997C27.7354 36.6927 27.6862 36.8754 27.555 37.0478C27.1204 37.6417 26.5949 38.1138 25.9785 38.4641C25.3621 38.8145 24.6951 39.0215 23.9775 39.0852C24.0206 39.7597 24.2904 40.3372 24.7869 40.8178C25.2834 41.2983 25.8742 41.5386 26.5594 41.5386C27.2788 41.5386 27.8869 41.2914 28.3837 40.797C28.8804 40.3025 29.1288 39.6973 29.1288 38.9812Z" fill="#26272B"/>
</svg>