<svg xmlns="http://www.w3.org/2000/svg" width="61" height="61" viewBox="0 0 61 61" fill="none">
  <path d="M30.5 0C13.6707 0 0 13.646 0 30.5C0 47.3293 13.646 61 30.5 61C47.354 61 61 47.354 61 30.5C61 13.6707 47.354 0 30.5 0ZM30.5 56.8791V55.6205C44.3681 55.6205 55.5959 44.3928 55.5959 30.5247H56.8544C56.879 45.0344 45.0591 56.8791 30.5 56.8791Z" fill="#D2E6FF"/>
  <path d="M22.1266 43C21.5207 43 21.0148 42.797 20.6089 42.3911C20.203 41.9852 20 41.4793 20 40.8734V24.0633C20 23.4574 20.203 22.9515 20.6089 22.5456C21.0148 22.1397 21.5207 21.9367 22.1266 21.9367H24.4557V19H25.8734V21.9367H35.2911V19H36.6076V21.9367H38.9367C39.5426 21.9367 40.0485 22.1397 40.4544 22.5456C40.8603 22.9515 41.0633 23.4574 41.0633 24.0633V40.8734C41.0633 41.4793 40.8603 41.9852 40.4544 42.3911C40.0485 42.797 39.5426 43 38.9367 43H22.1266ZM22.1266 41.6835H38.9367C39.1392 41.6835 39.3249 41.5992 39.4937 41.4304C39.6624 41.2616 39.7468 41.0759 39.7468 40.8734V29.3291H21.3165V40.8734C21.3165 41.0759 21.4008 41.2616 21.5696 41.4304C21.7384 41.5992 21.9241 41.6835 22.1266 41.6835ZM21.3165 28.0127H39.7468V24.0633C39.7468 23.8608 39.6624 23.6751 39.4937 23.5063C39.3249 23.3376 39.1392 23.2532 38.9367 23.2532H22.1266C21.9241 23.2532 21.7384 23.3376 21.5696 23.5063C21.4008 23.6751 21.3165 23.8608 21.3165 24.0633V28.0127ZM30.5316 33.9874C30.2599 33.9874 30.0232 33.8865 29.8215 33.6848C29.6198 33.4831 29.519 33.2464 29.519 32.9747C29.519 32.703 29.6198 32.4663 29.8215 32.2646C30.0232 32.0629 30.2599 31.962 30.5316 31.962C30.8034 31.962 31.0401 32.0629 31.2418 32.2646C31.4435 32.4663 31.5443 32.703 31.5443 32.9747C31.5443 33.2464 31.4435 33.4831 31.2418 33.6848C31.0401 33.8865 30.8034 33.9874 30.5316 33.9874ZM25.2658 33.9874C24.9941 33.9874 24.7574 33.8865 24.5557 33.6848C24.354 33.4831 24.2532 33.2464 24.2532 32.9747C24.2532 32.703 24.354 32.4663 24.5557 32.2646C24.7574 32.0629 24.9941 31.962 25.2658 31.962C25.5376 31.962 25.7743 32.0629 25.9759 32.2646C26.1776 32.4663 26.2785 32.703 26.2785 32.9747C26.2785 33.2464 26.1776 33.4831 25.9759 33.6848C25.7743 33.8865 25.5376 33.9874 25.2658 33.9874ZM35.7975 33.9874C35.5257 33.9874 35.289 33.8865 35.0873 33.6848C34.8857 33.4831 34.7848 33.2464 34.7848 32.9747C34.7848 32.703 34.8857 32.4663 35.0873 32.2646C35.289 32.0629 35.5257 31.962 35.7975 31.962C36.0692 31.962 36.3059 32.0629 36.5076 32.2646C36.7093 32.4663 36.8101 32.703 36.8101 32.9747C36.8101 33.2464 36.7093 33.4831 36.5076 33.6848C36.3059 33.8865 36.0692 33.9874 35.7975 33.9874ZM30.5316 39.0506C30.2599 39.0506 30.0232 38.9498 29.8215 38.7481C29.6198 38.5464 29.519 38.3097 29.519 38.038C29.519 37.7662 29.6198 37.5295 29.8215 37.3279C30.0232 37.1262 30.2599 37.0253 30.5316 37.0253C30.8034 37.0253 31.0401 37.1262 31.2418 37.3279C31.4435 37.5295 31.5443 37.7662 31.5443 38.038C31.5443 38.3097 31.4435 38.5464 31.2418 38.7481C31.0401 38.9498 30.8034 39.0506 30.5316 39.0506ZM25.2658 39.0506C24.9941 39.0506 24.7574 38.9498 24.5557 38.7481C24.354 38.5464 24.2532 38.3097 24.2532 38.038C24.2532 37.7662 24.354 37.5295 24.5557 37.3279C24.7574 37.1262 24.9941 37.0253 25.2658 37.0253C25.5376 37.0253 25.7743 37.1262 25.9759 37.3279C26.1776 37.5295 26.2785 37.7662 26.2785 38.038C26.2785 38.3097 26.1776 38.5464 25.9759 38.7481C25.7743 38.9498 25.5376 39.0506 25.2658 39.0506ZM35.7975 39.0506C35.5257 39.0506 35.289 38.9498 35.0873 38.7481C34.8857 38.5464 34.7848 38.3097 34.7848 38.038C34.7848 37.7662 34.8857 37.5295 35.0873 37.3279C35.289 37.1262 35.5257 37.0253 35.7975 37.0253C36.0692 37.0253 36.3059 37.1262 36.5076 37.3279C36.7093 37.5295 36.8101 37.7662 36.8101 38.038C36.8101 38.3097 36.7093 38.5464 36.5076 38.7481C36.3059 38.9498 36.0692 39.0506 35.7975 39.0506Z" fill="#26272B"/>
</svg>