<svg xmlns="http://www.w3.org/2000/svg" width="61" height="61" viewBox="0 0 61 61" fill="none">
  <path d="M30.5 0C13.6707 0 0 13.646 0 30.5C0 47.3293 13.646 61 30.5 61C47.354 61 61 47.354 61 30.5C61 13.6707 47.354 0 30.5 0ZM30.5 56.8791V55.6205C44.3681 55.6205 55.5959 44.3928 55.5959 30.5247H56.8544C56.879 45.0344 45.0591 56.8791 30.5 56.8791Z" fill="#D2E6FF"/>
  <path d="M26.68 43L24.51 39.34L20.38 38.45L20.785 34.19L18 31L20.785 27.81L20.38 23.55L24.51 22.66L26.68 19L30.55 20.635L34.42 19L36.59 22.66L40.72 23.55L40.315 27.81L43.1 31L40.315 34.19L40.72 38.45L36.59 39.34L34.42 43L30.55 41.365L26.68 43ZM27.235 41.335L30.55 39.955L33.88 41.335L35.75 38.215L39.325 37.42L39 33.73L41.405 31L39 28.255L39.325 24.565L35.75 23.785L33.865 20.665L30.55 22.045L27.22 20.665L25.35 23.785L21.775 24.565L22.1 28.255L19.695 31L22.1 33.73L21.775 37.435L25.35 38.215L27.235 41.335ZM29.185 34.715L35.63 28.27L34.71 27.335L29.185 32.86L26.39 30.08L25.47 31L29.185 34.715Z" fill="#26272B"/>
</svg>