<svg width="24" height="24" viewBox="0 0 24 24" fill="none" xmlns="http://www.w3.org/2000/svg">
<path id="Vector" d="M12 17.9487C12.2325 17.9487 12.4274 17.8701 12.5846 17.7128C12.7419 17.5556 12.8205 17.3607 12.8205 17.1282C12.8205 16.8957 12.7419 16.7009 12.5846 16.5436C12.4274 16.3863 12.2325 16.3077 12 16.3077C11.7675 16.3077 11.5726 16.3863 11.4154 16.5436C11.2581 16.7009 11.1795 16.8957 11.1795 17.1282C11.1795 17.3607 11.2581 17.5556 11.4154 17.7128C11.5726 17.8701 11.7675 17.9487 12 17.9487ZM11.3333 13.5385H12.6667V5.53847H11.3333V13.5385ZM12.0045 24C10.3451 24 8.78496 23.6851 7.32413 23.0554C5.86331 22.4256 4.59259 21.5709 3.51197 20.4913C2.43137 19.4117 1.57589 18.1422 0.945533 16.6827C0.315178 15.2233 0 13.6638 0 12.0045C0 10.3451 0.314878 8.78496 0.944634 7.32413C1.57441 5.86331 2.4291 4.59259 3.5087 3.51197C4.5883 2.43137 5.85782 1.57589 7.31727 0.945534C8.77673 0.315179 10.3362 0 11.9955 0C13.6549 0 15.215 0.314877 16.6759 0.944633C18.1367 1.57441 19.4074 2.4291 20.488 3.5087C21.5686 4.5883 22.4241 5.85782 23.0545 7.31727C23.6848 8.77673 24 10.3362 24 11.9955C24 13.6549 23.6851 15.215 23.0554 16.6759C22.4256 18.1367 21.5709 19.4074 20.4913 20.488C19.4117 21.5686 18.1422 22.4241 16.6827 23.0545C15.2233 23.6848 13.6638 24 12.0045 24ZM12 22.6667C14.9778 22.6667 17.5 21.6333 19.5667 19.5667C21.6333 17.5 22.6667 14.9778 22.6667 12C22.6667 9.02222 21.6333 6.5 19.5667 4.43333C17.5 2.36667 14.9778 1.33333 12 1.33333C9.02222 1.33333 6.5 2.36667 4.43333 4.43333C2.36667 6.5 1.33333 9.02222 1.33333 12C1.33333 14.9778 2.36667 17.5 4.43333 19.5667C6.5 21.6333 9.02222 22.6667 12 22.6667Z" fill="black"/>
</svg>
