<svg width="140" height="140" viewBox="0 0 140 140" fill="none" xmlns="http://www.w3.org/2000/svg">
<g id="Grifonas_spalvotas 1" clip-path="url(#clip0_6_520)">
<g id="Group">
<g id="Group_2">
<path id="Vector" d="M85.8706 137.374C72.0383 140.653 57.3387 139.492 44.2001 134.065C31.4085 128.784 20.3368 119.658 12.7196 108.079C4.81339 96.0512 0.780768 81.5129 1.35892 67.1197C1.90817 53.2053 6.7213 39.6101 15.0034 28.4379C23.4733 17.0191 35.4556 8.37161 48.9699 4.04784C62.571 -0.304939 77.3428 -0.29043 90.915 4.1349C104.097 8.42964 115.848 16.758 124.318 27.7705C133.034 39.1168 138.063 53.1617 138.627 67.4824C139.176 81.5129 135.332 95.5869 127.816 107.426C120.256 119.324 109.098 128.741 96.075 134.094C92.7651 135.444 89.354 136.532 85.8706 137.374C85.0756 137.562 85.2635 138.273 86.0585 138.07C100.151 134.689 113.029 127.014 122.598 116.074C131.892 105.439 137.89 92.0611 139.523 78.0016C141.214 63.4198 138.208 48.4317 131.053 35.6345C124.115 23.2146 113.333 13.1161 100.556 6.93519C87.6773 0.71071 72.9778 -1.40764 58.8708 0.928349C44.6771 3.27885 31.3362 9.95312 21.0451 20.0516C10.9418 29.9614 3.96061 42.9037 1.25774 56.8181C-1.53185 71.2113 0.347152 86.388 6.5334 99.6785C12.5462 112.621 22.5483 123.503 34.8774 130.641C47.1921 137.765 61.5737 140.957 75.7384 139.739C79.2074 139.434 82.6618 138.883 86.0585 138.07C86.8535 137.881 86.6656 137.185 85.8706 137.374Z" fill="#26272B"/>
</g>
<g id="Group_3">
<path id="XMLID_00000083799200658653893270000012491649043304754349_" d="M41.179 21.4883C37.6089 21.4883 34.7037 24.3901 34.7037 27.9884C34.7037 31.5722 37.5944 34.4886 41.179 34.4886C44.7491 34.4886 47.6543 31.5867 47.6543 27.9884C47.6399 24.3901 44.7491 21.4883 41.179 21.4883ZM41.179 33.6035V33.3278C44.1131 33.3278 46.498 30.9338 46.498 27.9884H46.7726C46.7726 31.0789 44.2577 33.6035 41.179 33.6035Z" fill="#D2E6FF"/>
<path id="XMLID_00000070086548924541462120000014777168684503233722_" d="M100.873 54.1777C91.0159 54.1777 83.0084 62.2014 83.0084 72.1112C83.0084 82.0065 91.0014 90.0447 100.873 90.0447C110.745 90.0447 118.738 82.021 118.738 72.1112C118.738 62.2159 110.745 54.1777 100.873 54.1777ZM100.873 87.6216V86.8816C108.996 86.8816 115.573 80.2799 115.573 72.1257H116.31C116.325 80.6572 109.401 87.6216 100.873 87.6216Z" fill="#D2E6FF"/>
<path id="XMLID_00000077287314076817206710000015500881501724575398_" d="M37.421 57.239C31.1769 57.239 26.1036 62.3318 26.1036 68.5998C26.1036 74.8678 31.1769 79.9605 37.421 79.9605C43.6651 79.9605 48.7384 74.8678 48.7384 68.5998C48.7384 62.3173 43.6651 57.239 37.421 57.239ZM37.421 78.4226V77.9438C42.5666 77.9438 46.7437 73.7506 46.7437 68.5853H47.2207C47.2063 74.0117 42.8123 78.4226 37.421 78.4226Z" fill="#CFFFFD"/>
<g id="Group_4">
<g id="Group_5">
<path id="Vector_2" d="M75.3335 40.8873C73.2521 40.1473 71.4309 38.8269 70.1012 37.0568C70 36.9262 69.8121 36.8247 69.7398 37.0278C69.6675 37.2454 69.8554 37.5356 69.9711 37.6807C71.3731 39.5524 73.3099 40.9888 75.5069 41.7578C75.8972 41.9174 75.6081 40.9888 75.3335 40.8873Z" fill="#26272B"/>
<path id="Vector_3" d="M95.7856 53.7713C94.4559 50.1149 91.8253 46.6762 88.5154 44.6304C87.4169 43.9485 86.2027 43.3972 84.9019 43.3391C83.7745 43.2956 82.6326 43.3536 81.4908 43.3536L81.5052 43.3391C81.5775 43.1795 81.881 42.4395 81.5631 41.6851C81.1583 40.6984 80.002 40.4373 79.0915 40.2196C78.2965 40.031 77.357 39.8134 76.4898 40.3502C76.4753 40.3647 76.4608 40.3647 76.4608 40.3792C75.7092 40.858 75.4924 41.8592 75.8682 42.6572C76.0706 43.0779 76.3163 43.4407 76.5909 43.7599C75.1745 44.021 73.7724 44.3112 72.3415 44.2822C71.9079 44.2677 71.6044 44.5579 71.7489 44.9787C71.9223 45.443 72.6884 45.5735 73.0931 45.5735C74.7842 45.6026 76.5187 45.1818 78.2242 44.8916C78.5278 44.9787 78.8457 45.0222 79.1493 44.9932C79.4962 44.9642 79.8864 44.8481 80.2478 44.6449C81.3318 44.6014 82.4303 44.674 83.5143 44.6595C84.4538 44.6449 85.3789 44.4853 86.2606 44.8481C89.3681 46.1394 91.8831 49.462 93.2562 52.4219C94.9329 56.0492 95.4532 60.8083 93.8488 64.5662C92.4179 67.8888 89.2525 70.1523 85.9859 71.6757C86.0438 70.2248 85.8125 68.8029 85.2921 67.4245C85.2777 67.3665 85.2632 67.3084 85.2343 67.2359C85.191 67.1488 85.1621 67.0618 85.1187 66.9747C85.0753 66.8877 85.0464 66.8006 85.0031 66.7136C84.9742 66.641 84.9163 66.5685 84.8441 66.5104C85.1621 65.1756 85.3066 63.7827 85.2343 62.3463C85.1043 59.5895 84.5261 56.9778 83.3842 54.4532C82.8495 53.278 81.115 54.2936 81.6498 55.4689C83.7456 60.0683 84.2515 66.4814 80.6958 70.486C79.8141 71.4726 78.759 72.2706 77.5738 72.88C76.9523 73.1992 76.3019 73.4459 75.637 73.6345C75.5792 73.649 75.4346 73.678 75.2612 73.707C75.6225 73.2427 75.8972 72.6043 76.1284 72.14C76.4753 71.4726 76.7644 70.7616 77.0101 70.0362C77.3714 68.9625 77.5738 67.8743 77.7039 66.7571C77.8629 65.4658 75.8393 65.4803 75.6948 66.7571C75.6803 66.8732 75.6514 66.9892 75.6225 67.1198C74.1627 68.0919 72.5005 68.6578 70.7516 68.8029C74.0326 65.3642 75.7671 60.7067 74.6108 55.9332C74.5385 55.672 74.1916 55.7445 73.9603 55.8461C74.683 53.7858 74.0615 51.4788 72.0669 50.231C71.9512 50.1585 71.7778 50.173 71.6333 50.231C72.0091 49.8828 71.9368 49.1864 71.5899 48.8526C71.1707 48.4319 70.5926 48.5189 70.1734 48.8526C70.5348 48.577 70.0722 48.9252 69.9711 48.9832C69.7543 49.1283 69.523 49.2734 69.2917 49.3895C69.1617 49.462 69.0171 49.5346 68.8726 49.5926C68.8437 49.6071 68.7859 49.6361 68.7569 49.6361C68.6847 49.6652 68.6124 49.6942 68.5401 49.7232C68.1643 49.8683 67.7741 49.9698 67.3838 50.0424C67.326 50.0569 67.2682 50.0569 67.2104 50.0569C67.2104 50.0424 67.2104 50.0424 67.2104 50.0279V50.0134C67.2104 49.9844 67.2104 49.9553 67.2104 49.9263C67.2104 48.6785 67.2104 47.4162 67.2104 46.1684C68.2366 46.3135 69.2917 46.1974 70.2023 45.6606C70.4914 45.501 70.7805 45.2834 71.0117 45.0512C71.2286 44.8336 71.2575 44.6449 71.2575 44.3548C71.2575 43.6873 71.1129 43.0344 70.8528 42.4395C69.7687 39.9439 66.7334 38.8412 64.3919 40.2922C63.0332 41.2062 61.9636 42.8748 62.1515 44.5724C62.1949 45.0222 62.643 45.2979 63.0043 45.53C63.4524 45.8202 63.9727 46.0378 64.4931 46.1394C65.0568 46.2555 65.6349 46.2555 66.2131 46.1684C66.2131 47.4162 66.2131 48.664 66.2131 49.9118C66.2131 49.9408 66.2131 49.9699 66.2131 49.9989V50.0134C66.2131 50.0424 66.2275 50.0714 66.2275 50.0859C65.1001 50.0134 63.9727 49.5636 63.0477 48.8526C62.6141 48.5189 61.9203 48.7801 61.6746 49.2154C61.371 49.7377 61.6023 50.2745 62.0359 50.5938C63.6836 51.8415 65.765 52.3204 67.803 51.9866C69.0749 51.7835 70.2457 51.2176 71.2864 50.4632C71.2141 50.5792 71.2286 50.7098 71.3731 50.7969C73.5701 52.1753 73.917 55.0336 72.3993 57.0649C72.038 57.5582 72.9052 57.5292 73.1509 57.3406C73.3677 57.1665 73.5845 56.9923 73.8013 56.8182C74.683 61.3741 72.8329 65.814 69.5375 68.977C69.3062 69.1946 69.3785 69.5138 69.7398 69.5138C71.7778 69.4993 73.7435 68.9625 75.478 67.9614C75.3335 68.6288 75.16 69.2817 74.9143 69.9201C74.6541 70.602 74.3361 71.2695 73.9603 71.8934C73.599 72.5028 72.9919 73.0976 72.8185 73.7941C72.5728 74.8097 73.3388 75.8544 74.394 75.9124C75.4491 75.9705 76.6777 75.4336 77.6316 75.0274C80.479 73.8231 82.5748 71.7628 83.8468 69.2382C83.8901 69.5138 83.9335 69.7895 83.9479 70.0652C84.0058 70.7616 83.9769 71.4726 83.8612 72.1545C83.8034 72.5463 83.6011 72.9525 83.9335 73.2572C84.3671 73.6635 85.0175 73.7941 85.5668 73.591C89.2959 72.1545 93.3285 69.833 95.3376 66.2347C97.4478 62.5494 97.2166 57.7033 95.7856 53.7713ZM76.1718 41.9027C76.0417 41.627 76.114 41.2933 76.3741 41.1337C76.3886 41.1337 76.3886 41.1192 76.403 41.1192C76.7066 40.9306 77.0245 41.0176 77.2992 41.0757C77.6172 41.1482 78.0074 41.2353 78.152 41.5835C78.2531 41.8447 78.1519 42.1058 78.123 42.1494C77.9785 42.5121 77.6027 42.7007 77.3136 42.7152C76.8945 42.7587 76.4319 42.4395 76.1718 41.9027ZM64.9267 41.1772C66.242 40.3647 67.9042 40.5098 69.0316 41.569C69.2628 41.7866 69.4652 42.0333 69.6386 42.2944C69.2773 42.2364 69.046 42.2219 68.8292 42.338C68.6702 42.425 68.2366 42.6862 67.8174 43.5132L67.3116 45.1963C67.2393 45.1818 67.167 45.1673 67.0803 45.1528C66.8924 44.9642 66.5455 44.9642 66.3576 45.1528C66.2998 45.1673 66.242 45.1818 66.1697 45.1963C66.0396 44.4563 65.606 42.9619 64.0739 42.5556C64.0305 42.5411 63.9005 42.454 63.7415 42.4105C64.0594 41.9317 64.4497 41.5109 64.9267 41.1772Z" fill="#26272B"/>
<path id="Vector_4" d="M59.333 47.1698C56.977 48.5917 55.0547 50.652 53.855 53.1331C53.7249 53.4087 54.3754 54.1487 54.5199 53.8585C55.7051 51.4065 57.5986 49.3897 59.9256 47.9968C60.1713 47.8372 59.6076 47.0102 59.333 47.1698Z" fill="#26272B"/>
<path id="Vector_5" d="M79.4384 37.7967C79.713 38.1014 79.9876 38.0579 80.349 38.0869C80.797 38.1159 81.2162 38.2755 81.5775 38.5367C82.0256 38.8559 82.358 39.3492 82.5315 39.8715C82.676 40.3213 83.6589 40.4229 83.4854 39.8715C82.994 38.3626 81.6064 37.3324 80.031 37.3034C78.7301 35.8815 76.6343 35.4607 74.8854 36.2732C74.365 36.5054 75.1022 37.1583 75.5358 36.9697C76.9234 36.3168 78.4266 36.6795 79.4384 37.7967Z" fill="#26272B"/>
<path id="Vector_6" d="M55.9219 37.9999C54.4765 38.0144 53.1901 38.8124 52.7276 40.2343C52.6698 40.4084 53.6382 40.6841 53.7105 40.481C53.8984 39.9296 54.2164 39.4073 54.6644 39.03C55.0402 38.7108 55.4883 38.4932 55.9797 38.3916C56.2254 38.3481 56.6735 38.4352 56.8614 38.2901C57.0782 38.1305 57.2517 37.8548 57.4829 37.6807C57.8443 37.405 58.249 37.1729 58.6826 37.0423C59.3619 36.8391 60.0991 36.8391 60.7495 37.1438C60.9085 37.2164 61.2698 37.347 61.4288 37.2599C61.5878 37.1728 61.4288 37.0858 61.2988 37.0278C59.4631 36.2152 57.2517 36.4184 55.9219 37.9999Z" fill="#26272B"/>
<path id="Vector_7" d="M61.1109 57.9501C61.3277 58.1242 61.5445 58.3128 61.7613 58.4869C61.9347 58.632 62.802 58.8496 62.4695 58.3998C60.9085 56.3105 61.3566 53.3796 63.5825 51.9867C63.8426 51.8271 63.0188 51.3193 62.7441 51.4934C60.6917 52.7702 60.1858 55.1788 61.0386 57.2391C60.923 57.152 60.3448 56.8619 60.2725 57.123C59.1018 61.9401 60.923 66.6701 64.3052 70.0943C62.484 70.0073 60.764 69.4414 59.2608 68.4548C59.2319 68.2952 59.2029 68.1356 59.1885 67.976C59.044 66.6992 57.0204 66.6846 57.1794 67.976C57.3095 69.0932 57.5263 70.1959 57.8732 71.2551C58.09 71.9225 58.3646 72.5609 58.6682 73.1993C58.885 73.6491 59.2174 74.4471 59.6077 74.9404C59.5209 74.9259 59.4487 74.9114 59.4053 74.8969C58.6826 74.6938 57.9888 74.4326 57.3239 74.0989C56.1387 73.4895 55.0836 72.706 54.2019 71.7049C50.6318 67.7003 51.1522 61.2872 53.248 56.6878C53.7828 55.5125 52.0483 54.4823 51.5135 55.6721C49.5478 59.9814 48.7962 65.4949 50.733 69.9347C49.8513 70.8488 48.0879 68.3387 47.6977 67.7293C46.7582 66.2203 46.3535 64.4647 46.1511 62.7091C45.7464 59.372 45.7175 55.8897 46.8015 52.6687C47.77 49.7668 49.9525 47.3002 52.771 46.096C55.1848 45.0658 58.1045 45.2254 60.6628 45.5446C60.8796 45.5736 61.689 45.6172 61.7035 45.2544C61.7179 44.8917 60.9808 44.7756 60.7495 44.7466C60.287 44.6886 59.8245 44.6451 59.3475 44.6015C60.0413 44.2098 60.6628 43.5278 61.082 42.6428C61.2843 42.222 61.2988 41.7577 61.1831 41.3224C63.0766 40.5244 64.7388 39.2331 65.9818 37.5935C66.083 37.463 65.8084 37.0132 65.7072 37.1583C64.4786 38.7833 62.8309 40.0601 60.9663 40.8436C60.8507 40.6695 60.7062 40.5244 60.5183 40.4083C60.5038 40.3938 60.4749 40.3793 60.446 40.3648C59.5788 39.8425 58.6537 40.0456 57.8443 40.2342C56.9337 40.4374 55.7774 40.713 55.3727 41.6997C55.0691 42.4541 55.3727 43.1941 55.4305 43.3537C55.6473 43.8615 56.0086 44.2533 56.4278 44.529C54.4187 44.6015 52.453 44.9497 50.6896 45.7478C51.5713 42.8749 52.5831 40.0166 53.8839 37.3034C55.2137 34.5176 57.0349 32.0365 58.8994 29.5989C59.0295 29.6134 59.1596 29.6134 59.2608 29.5844C59.5209 29.5119 59.8389 29.0911 60.0702 28.9315C61.4578 27.9594 63.1344 27.4225 64.8255 27.408C65.6638 27.408 66.2853 26.9728 67.0803 26.6826C68.0632 26.3343 69.0894 26.1022 70.1301 26.0006C71.9079 25.8265 73.7002 26.0297 75.4346 26.4794C76.2007 26.6826 76.9523 26.9292 77.6894 27.2339C78.1809 27.437 78.6723 27.7417 79.1926 27.7853C80.0743 27.8578 81.0283 27.6837 81.9244 27.7127C82.9073 27.7417 83.8901 27.8143 84.8585 27.9449C88.0384 28.3656 92.0421 28.8154 93.5887 32.1526C93.8777 32.7765 94.1813 33.4729 94.1957 34.1694C94.2246 35.2285 93.5164 36.1426 93.0539 37.0422C92.1722 38.7543 91.5362 40.5244 90.8135 42.2945C90.51 43.02 90.1197 43.3247 89.3392 43.3102C89.267 43.2812 89.2091 43.2522 89.1369 43.2231C89.108 43.2086 89.0935 43.2086 89.0791 43.1941C89.0357 43.1071 88.9923 43.02 88.949 42.933C88.6744 42.3526 88.4286 41.7432 88.2118 41.1338C87.6626 39.5523 87.4602 37.8837 86.8821 36.3167C85.8125 33.3568 83.8179 30.6726 81.5486 28.5398C81.2451 28.2496 81.592 28.888 81.6353 28.946C81.8521 29.3523 82.1412 29.8166 82.4736 30.1358C83.9624 31.5287 85.1476 33.0231 85.8269 34.9674C86.3473 36.4908 86.5496 38.1014 87.0989 39.6103C87.4313 40.5679 90.2065 47.4598 91.8976 44.3839C92.3312 43.6004 92.5335 42.6283 92.8804 41.8012C93.2996 40.7856 93.7621 39.799 94.268 38.8268C95.0919 37.2308 95.7278 36.2152 95.063 34.4305C94.0801 31.7608 92.1866 29.0476 89.6861 27.6402C88.3275 26.8712 86.8965 26.581 85.3644 26.4214C83.3842 26.2183 81.4619 25.8991 79.4672 25.9571C78.5567 25.9861 77.8629 26.0151 77.0246 25.6669C76.403 25.4058 75.7671 25.1736 75.1311 24.9705C73.3677 24.4191 71.5032 24.1144 69.6386 24.2015C68.6124 24.245 67.5862 24.4191 66.5889 24.7093C65.6783 24.985 64.7821 25.5799 63.8571 25.6379C61.9636 25.754 60.2581 26.1602 58.7115 27.3355C58.4658 27.5241 58.2779 27.7272 58.0033 27.7998C57.6708 27.8868 57.165 27.7563 56.8181 27.7708C56.2544 27.7853 55.6907 27.8433 55.127 27.9449C54.2019 28.119 53.2769 28.3947 52.4096 28.7719C49.2876 30.1213 47.2063 32.7474 46.9316 36.1861C46.657 39.6103 48.7962 42.2655 49.4321 45.5156C49.4611 45.6607 49.5333 45.8203 49.62 45.9654C49.5911 46.0524 49.5622 46.1395 49.5333 46.2266C49.5189 46.2846 49.5189 46.3426 49.5189 46.4007C48.3481 47.1116 47.293 48.0692 46.3968 49.317C44.5034 51.9722 43.8963 55.4109 43.9108 58.632C43.9252 61.795 44.1854 65.5529 46.0933 68.1936C46.9172 69.3398 48.0157 70.4716 49.4032 70.8633C49.9091 71.0084 50.6318 71.0955 51.2967 71.0084C52.4675 73.0687 54.2453 74.7663 56.3555 75.8255C57.7142 76.5219 61.4433 78.3501 62.1226 75.8835C62.325 75.1726 61.9781 74.6212 61.5878 74.0554C61.0964 73.3589 60.6628 72.6189 60.3159 71.8354C59.9112 70.9504 59.6221 70.0073 59.4198 69.0497C61.212 70.0943 63.2356 70.6602 65.3314 70.6747C65.5193 70.6747 65.606 70.5151 65.4615 70.3845C62.0215 67.1489 60.1424 62.622 61.1109 57.9501ZM58.3502 41.5836C58.4947 41.2499 58.885 41.1483 59.203 41.0758C59.4776 41.0177 59.7956 40.9307 60.0991 41.1193C60.1135 41.1193 60.1135 41.1338 60.128 41.1338C60.2003 41.1918 60.2581 41.2499 60.3014 41.3369C60.3159 41.366 60.3159 41.3805 60.3303 41.395C60.4026 41.5546 60.4026 41.7432 60.3303 41.9028C60.0846 42.4396 59.6077 42.7588 59.1885 42.7153C58.8994 42.6863 58.5236 42.4977 58.3791 42.1495C58.3502 42.0914 58.249 41.8448 58.3502 41.5836ZM49.6056 44.0212C49.0853 42.4977 48.2036 41.2499 48.0446 39.5958C47.7844 36.7375 48.7962 33.8647 51.0221 32.0365C52.5542 30.7887 54.491 30.0052 56.4278 29.686C56.8325 29.6134 57.2372 29.5844 57.6564 29.5699C55.8641 31.9494 54.1441 34.358 52.8722 37.0712C51.6869 39.5958 50.733 42.2365 49.8947 44.8917C49.7935 44.587 49.7068 44.3113 49.6056 44.0212Z" fill="#26272B"/>
</g>
<g id="Group_6">
<path id="Vector_8" d="M23.2418 94.731C23.2851 106.73 34.3423 107.107 39.1555 100.651C39.0109 103.262 39.1988 104.06 39.3867 104.771C39.4879 105.294 39.9938 105.584 40.5141 105.482C40.9911 105.337 41.3235 104.858 41.179 104.293C40.4274 101.115 41.9884 93.6718 42.1763 91.1617C42.2197 90.6394 41.8439 90.2186 41.3235 90.1606C41.1935 90.1315 41.0778 90.1461 40.9477 90.1896C38.4039 90.0735 35.8455 90.3492 33.3884 91.0166C32.1887 91.3358 32.6946 93.2075 33.9087 92.8883C35.9467 92.337 38.0425 92.1048 40.1383 92.1193C39.7336 95.2243 38.823 100.636 33.5329 102.493C29.4714 103.959 25.1786 101.826 25.1208 94.7165C25.1208 91.9162 25.5399 89.1739 26.4361 86.4607C29.9773 76.0721 38.9097 70.4425 40.4129 73.2863C40.8899 74.1423 40.3696 78.3065 38.1437 81.6726C37.8546 82.0934 37.9992 82.6738 38.4328 83.0075C38.8519 83.2977 39.4301 83.1526 39.7625 82.7173C40.8466 81.0632 41.6993 78.9739 42.1763 76.9281C45.3417 62.5929 23.155 74.4905 23.2418 94.731Z" fill="#26272B"/>
<path id="Vector_9" d="M54.2742 85.1114C51.3401 84.444 48.2758 87.8102 46.7148 90.3783C46.816 88.9999 46.9027 87.5345 46.9027 86.1126C46.9027 85.5902 46.4836 85.1695 45.9632 85.1695C45.4429 85.1695 45.0237 85.5902 45.0237 86.1126C44.9804 89.7109 44.46 93.4107 44.4167 97.1106C44.4167 97.5894 44.8358 98.0102 45.3562 98.0537C45.8765 98.0537 46.2957 97.6329 46.2957 97.1541C46.5847 92.0759 51.4412 86.4463 53.8984 86.9686C54.3754 87.0702 54.8957 86.78 54.9824 86.2577C55.1125 85.7353 54.7945 85.213 54.2742 85.1114Z" fill="#26272B"/>
<path id="Vector_10" d="M71.8356 83.3123C72.356 83.3558 72.8329 82.9786 72.8763 82.4563C72.9197 81.9339 72.5439 81.4551 72.0235 81.4116C70.1301 81.1794 68.2511 81.0779 66.3576 81.0779C68.3378 71.2116 72.4427 71.1245 72.3126 74.9695C72.3126 75.4918 72.6884 75.9126 73.2087 75.9126C73.7291 75.9561 74.2061 75.5353 74.2061 75.013C74.3939 69.6155 67.1237 66.9023 64.4352 81.1794C63.0043 81.2085 61.5589 81.3535 60.1425 81.5567L60.3737 80.8022C60.7062 79.6124 58.8561 79.0901 58.5381 80.3234C58.4369 80.7442 58.3068 81.223 58.1623 81.7018C58.1189 81.8323 58.1189 81.9629 58.1478 82.0935C57.9455 82.2966 57.8298 82.5723 57.8876 82.877C57.9888 83.3558 58.3646 83.6315 58.8271 83.6315C58.8271 83.6315 61.371 83.2107 64.1173 83.0656C63.8137 85.155 63.6114 87.549 63.5102 90.0301C61.4867 93.788 58.5959 97.1396 57.3673 96.4432C55.9508 95.5871 58.2634 88.3325 58.7404 86.722C58.885 86.1996 58.5525 85.6773 58.0755 85.5322C57.5552 85.4307 57.0349 85.7208 56.8903 86.2432C55.7051 90.5524 53.6816 96.4432 56.4134 98.0972C58.7115 99.4756 61.4144 96.7189 63.3801 93.8751C63.3223 97.4588 63.409 100.985 63.5391 103.828C63.5825 104.351 64.0161 104.728 64.4786 104.728H64.522C65.0423 104.728 65.4615 104.249 65.4181 103.727C65.1868 98.9388 65.0423 89.5513 66.0252 83.0076C67.962 82.9786 69.8988 83.0802 71.8356 83.3123Z" fill="#26272B"/>
<path id="Vector_11" d="M121.701 89.943C121.557 89.4642 120.993 89.1886 120.516 89.3772C117.972 90.2332 115.746 91.5536 113.622 93.077C113.101 91.0893 111.352 87.4765 112.494 86.2432C112.682 86.011 113.246 85.3871 114.576 86.0981C115.053 86.3302 115.616 86.1416 115.848 85.7208C116.137 85.242 115.949 84.6762 115.472 84.444C112.682 82.9205 109.705 84.6326 110.326 88.6227C110.427 89.1595 110.558 89.6674 110.702 90.1317C108.202 94.7021 103.172 100.593 104.574 92.4531C104.718 91.452 104.906 90.4218 105.238 89.5658C105.426 89.0435 105.195 88.5211 104.718 88.3325C104.241 88.1439 103.721 88.3325 103.49 88.8113C102.406 90.9877 100.512 94.6005 98.5753 96.0224C94.6149 99.0549 97.26 87.3459 104.574 87.3459C105.094 87.3459 105.513 86.9251 105.513 86.4028C105.513 85.8804 105.094 85.4597 104.574 85.4597C100.859 85.4597 97.9971 87.8247 96.3783 90.5524C95.1208 92.3371 92.8226 94.4989 91.305 93.5268C89.7006 92.5257 91.0159 89.5948 90.0764 87.4184C89.6572 86.4173 88.8044 85.8079 87.8505 85.7644C85.827 85.6628 84.7863 88.2309 83.4565 91.2634C83.6444 89.4207 83.789 87.8537 83.9769 86.5188C84.078 85.9965 83.6878 85.4742 83.1674 85.4306C82.6471 85.3291 82.1701 85.7208 82.1268 86.2432C81.9822 87.3023 81.8521 88.4486 81.7365 89.6093C79.8286 90.0591 78.3543 89.9721 77.2703 89.6674C76.8511 87.9553 75.3335 85.3581 73.5412 85.6338C73.2087 85.4016 72.7318 85.4452 72.4138 85.6773C71.0407 86.8671 70 88.4341 69.4797 90.2332C67.3116 97.4443 73.2087 101.376 76.4175 95.9209C77.1257 94.644 77.5449 93.1786 77.5449 91.6987C78.7735 91.8873 80.1177 91.8583 81.5486 91.5826C81.3752 93.7154 81.2306 95.7903 81.1295 97.4298C81.0861 97.9086 81.4185 98.3294 81.8811 98.431C82.3002 98.5325 82.7772 98.2859 82.9217 97.8216C85.0464 92.0324 87.3591 85.9675 88.2986 88.2019C89.0502 89.856 87.547 93.4688 90.2354 95.1664C91.7241 96.095 93.4008 95.6887 94.904 94.7021C94.7594 96.182 95.0919 97.4298 96.0025 98.0682C98.2284 99.5917 100.772 96.9365 102.29 94.7021C102.073 99.1709 106.337 101.057 111.526 92.5837C111.714 93.1351 111.887 93.7154 112.017 94.3684C109.661 96.211 108.895 96.8349 108.621 97.7345C107.435 101.202 114.619 102 114.012 95.1809C116.18 93.5704 118.493 92.1049 121.094 91.2489C121.615 90.9877 121.889 90.4654 121.701 89.943ZM74.7698 94.8762C71.8934 99.8529 69.0605 92.6418 72.6017 88.1439C73.0208 89.2321 74.0615 90.3783 75.6225 91.0312C75.7526 92.4677 75.3768 93.8315 74.7698 94.8762ZM110.37 98.3439C110.471 98.0102 111.034 97.5314 112.119 96.6318C111.829 98.3439 110.702 98.5761 110.37 98.3439Z" fill="#26272B"/>
</g>
</g>
<path id="XMLID_00000102517818537619134740000006841828698158124958_" d="M88.1685 105.511C84.5984 105.511 81.6931 108.413 81.6931 112.012C81.6931 115.61 84.5839 118.512 88.1685 118.512C91.753 118.512 94.6438 115.61 94.6438 112.012C94.6438 108.413 91.7386 105.511 88.1685 105.511ZM88.1685 117.627V117.351C91.1026 117.351 93.4875 114.957 93.4875 112.012H93.7621C93.7621 115.102 91.2616 117.627 88.1685 117.627Z" fill="#CFFFFD"/>
</g>
</g>
</g>
<defs>
<clipPath id="clip0_6_520">
<rect width="140" height="140" fill="white"/>
</clipPath>
</defs>
</svg>
