<svg xmlns="http://www.w3.org/2000/svg" width="61" height="61" viewBox="0 0 61 61" fill="none">
<path d="M30.5 0C13.6707 0 0 13.646 0 30.5C0 47.3293 13.646 61 30.5 61C47.354 61 61 47.354 61 30.5C61 13.6707 47.354 0 30.5 0ZM30.5 56.8791V55.6205C44.3681 55.6205 55.5959 44.3928 55.5959 30.5247H56.8544C56.879 45.0344 45.0591 56.8791 30.5 56.8791Z" fill="#D2E6FF"/>
<path d="M30.4968 44.5625L29.3605 43.5358C26.913 41.2998 24.8885 39.3859 23.2869 37.794C21.6854 36.202 20.4213 34.798 19.4946 33.582C18.5679 32.3659 17.9204 31.2657 17.5523 30.2813C17.1841 29.2969 17 28.3068 17 27.3109C17 25.4036 17.6479 23.8021 18.9438 22.5063C20.2396 21.2104 21.8411 20.5625 23.7484 20.5625C25.0673 20.5625 26.3045 20.8999 27.46 21.5748C28.6155 22.2496 29.6277 23.2311 30.4968 24.5192C31.3658 23.2311 32.378 22.2496 33.5335 21.5748C34.689 20.8999 35.9262 20.5625 37.2451 20.5625C39.1524 20.5625 40.7539 21.2104 42.0497 22.5063C43.3456 23.8021 43.9935 25.4036 43.9935 27.3109C43.9935 28.3068 43.8094 29.2969 43.4412 30.2813C43.0731 31.2657 42.4256 32.3659 41.4989 33.582C40.5722 34.798 39.3129 36.202 37.721 37.794C36.1291 39.3859 34.0997 41.2998 31.633 43.5358L30.4968 44.5625ZM30.4968 42.5322C32.8962 40.3635 34.8707 38.5058 36.4203 36.959C37.97 35.4123 39.1947 34.0703 40.0944 32.9331C40.9942 31.7959 41.6191 30.7884 41.969 29.9107C42.3189 29.0331 42.4939 28.1664 42.4939 27.3109C42.4939 25.8112 41.994 24.5615 40.9942 23.5618C39.9945 22.562 38.7448 22.0621 37.2451 22.0621C36.0512 22.0621 34.9495 22.4029 33.9401 23.0845C32.9308 23.766 32.0272 24.7922 31.2293 26.1631H29.7642C28.9471 24.773 28.0387 23.742 27.0389 23.0701C26.0392 22.3981 24.9423 22.0621 23.7484 22.0621C22.268 22.0621 21.0231 22.562 20.0137 23.5618C19.0043 24.5615 18.4996 25.8112 18.4996 27.3109C18.4996 28.1664 18.6746 29.0331 19.0245 29.9107C19.3744 30.7884 19.9993 31.7959 20.8991 32.9331C21.7988 34.0703 23.0236 35.4075 24.5732 36.9446C26.1228 38.4818 28.0973 40.3443 30.4968 42.5322Z" fill="#26272B"/>
</svg>