<svg xmlns="http://www.w3.org/2000/svg" width="61" height="61" viewBox="0 0 61 61" fill="none">
<path d="M30.5 0C13.6707 0 0 13.646 0 30.5C0 47.3293 13.646 61 30.5 61C47.354 61 61 47.354 61 30.5C61 13.6707 47.354 0 30.5 0ZM30.5 56.8791V55.6205C44.3681 55.6205 55.5959 44.3928 55.5959 30.5247H56.8544C56.879 45.0344 45.0591 56.8791 30.5 56.8791Z" fill="#D2E6FF"/>
<path d="M31.2693 41.2693C29.7743 41.0915 28.2894 40.7015 26.8148 40.0991C25.3402 39.4967 24.0043 38.6186 22.8071 37.4647C21.6099 36.3108 20.6149 34.8481 19.8223 33.0766C19.0297 31.3052 18.5689 29.1697 18.4398 26.6702L18.3845 25.5089L19.4905 25.5642C20.4915 25.6195 21.6804 25.872 23.0573 26.3218C24.4343 26.7716 25.603 27.3448 26.5633 28.0416C26.685 26.2388 27.1306 24.3407 27.9002 22.3472C28.6698 20.3536 29.6269 18.661 30.7716 17.2693C31.9163 18.661 32.8735 20.3628 33.6431 22.3748C34.4126 24.3868 34.8583 26.2942 34.9799 28.0969C35.885 27.4554 37.0076 26.8868 38.3477 26.3909C39.6878 25.8951 40.9044 25.6195 41.9974 25.5642L43.1587 25.5089L43.1034 26.7255C43.0297 28.7089 42.7209 30.4896 42.1772 32.0675C41.6334 33.6453 40.8643 35.0297 39.8698 36.2204C38.8753 37.4112 37.6642 38.4227 36.2366 39.255C34.8089 40.0872 33.1532 40.7587 31.2693 41.2693ZM31.2527 39.8149C30.9892 35.837 29.809 32.8296 27.7122 30.7928C25.6154 28.7559 23.0094 27.4979 19.8942 27.0186C20.1578 31.1163 21.374 34.1716 23.5426 36.1845C25.7113 38.1974 28.2813 39.4075 31.2527 39.8149ZM30.7716 32.5651C31.0942 31.9642 31.5085 31.3361 32.0145 30.6808C32.5205 30.0255 33.0407 29.4757 33.5753 29.0315C33.5642 27.555 33.3131 26.014 32.8218 24.4084C32.3306 22.8029 31.6472 21.2656 30.7716 19.7965C29.8961 21.2656 29.2127 22.8029 28.7214 24.4084C28.2302 26.014 27.979 27.555 27.9679 29.0315C28.5025 29.4757 29.0196 30.0255 29.5191 30.6808C30.0186 31.3361 30.4361 31.9642 30.7716 32.5651ZM32.6905 39.3338C33.8168 38.9541 34.8961 38.4518 35.9283 37.8269C36.9606 37.202 37.8855 36.4025 38.703 35.4283C39.5205 34.4541 40.1905 33.2785 40.7131 31.9015C41.2357 30.5246 41.5477 28.8969 41.649 27.0186C39.3228 27.3541 37.2537 28.172 35.4417 29.4725C33.6297 30.773 32.3237 32.3679 31.5237 34.2573C31.8113 35.0241 32.0477 35.7983 32.2329 36.5799C32.4182 37.3614 32.5707 38.2794 32.6905 39.3338Z" fill="#26272B"/>
</svg>