<svg xmlns="http://www.w3.org/2000/svg" width="61" height="61" viewBox="0 0 61 61" fill="none">
  <path d="M30.5 0C13.6707 0 0 13.646 0 30.5C0 47.3293 13.646 61 30.5 61C47.354 61 61 47.354 61 30.5C61 13.6707 47.354 0 30.5 0ZM30.5 56.8791V55.6205C44.3681 55.6205 55.5959 44.3928 55.5959 30.5247H56.8544C56.879 45.0344 45.0591 56.8791 30.5 56.8791Z" fill="#D2E6FF"/>
  <path d="M30.3333 37H31.6667V31.6667H37V30.3333H31.6667V25H30.3333V30.3333H25V31.6667H30.3333V37ZM31.0045 43C29.3451 43 27.785 42.6851 26.3241 42.0554C24.8633 41.4256 23.5926 40.5709 22.512 39.4913C21.4314 38.4117 20.5759 37.1422 19.9455 35.6827C19.3152 34.2233 19 32.6638 19 31.0045C19 29.3451 19.3149 27.785 19.9446 26.3241C20.5744 24.8633 21.4291 23.5926 22.5087 22.512C23.5883 21.4314 24.8578 20.5759 26.3173 19.9455C27.7767 19.3152 29.3362 19 30.9955 19C32.6549 19 34.215 19.3149 35.6759 19.9446C37.1367 20.5744 38.4074 21.4291 39.488 22.5087C40.5686 23.5883 41.4241 24.8578 42.0545 26.3173C42.6848 27.7767 43 29.3362 43 30.9955C43 32.6549 42.6851 34.215 42.0554 35.6759C41.4256 37.1367 40.5709 38.4074 39.4913 39.488C38.4117 40.5686 37.1422 41.4241 35.6827 42.0545C34.2233 42.6848 32.6638 43 31.0045 43ZM31 41.6667C33.9778 41.6667 36.5 40.6333 38.5667 38.5667C40.6333 36.5 41.6667 33.9778 41.6667 31C41.6667 28.0222 40.6333 25.5 38.5667 23.4333C36.5 21.3667 33.9778 20.3333 31 20.3333C28.0222 20.3333 25.5 21.3667 23.4333 23.4333C21.3667 25.5 20.3333 28.0222 20.3333 31C20.3333 33.9778 21.3667 36.5 23.4333 38.5667C25.5 40.6333 28.0222 41.6667 31 41.6667Z" fill="#26272B"/>
</svg>