<svg xmlns="http://www.w3.org/2000/svg" width="61" height="61" viewBox="0 0 61 61" fill="none">
<path d="M30.5 0C13.6707 0 0 13.646 0 30.5C0 47.3293 13.646 61 30.5 61C47.354 61 61 47.354 61 30.5C61 13.6707 47.354 0 30.5 0ZM30.5 56.8791V55.6205C44.3681 55.6205 55.5959 44.3928 55.5959 30.5247H56.8544C56.879 45.0344 45.0591 56.8791 30.5 56.8791Z" fill="#D2E6FF"/>
<path d="M18 42L17 41L26.3158 31.6842L31.7895 37.1579L41.3474 26.2105L42.3158 27.1263L31.8421 39.2105L26.3158 33.6842L18 42ZM18 33.7895L17 32.7895L26.3158 23.4737L31.7895 28.9474L41.3474 18L42.3158 18.9158L31.8421 31L26.3158 25.4737L18 33.7895Z" fill="#26272B"/>
</svg>